<svg width="1081" height="1080" viewBox="0 0 1081 1080" fill="none" xmlns="http://www.w3.org/2000/svg">
<path d="M60.7177 560.398V517.784L192.82 464.872V509.616L108.658 538.736L110.078 536.605V541.577L108.658 539.446L192.82 568.565V613.31L60.7177 560.398ZM345.137 630H275.18V448.182H344.427C363.13 448.182 379.287 451.822 392.9 459.102C406.572 466.322 417.107 476.739 424.505 490.352C431.962 503.905 435.691 520.152 435.691 539.091C435.691 558.03 431.992 574.306 424.594 587.919C417.196 601.473 406.72 611.889 393.166 619.169C379.613 626.39 363.603 630 345.137 630ZM324.54 588.097H343.362C352.358 588.097 360.022 586.647 366.355 583.746C372.747 580.846 377.6 575.845 380.915 568.743C384.288 561.641 385.975 551.757 385.975 539.091C385.975 526.425 384.259 516.541 380.826 509.439C377.452 502.337 372.481 497.335 365.911 494.435C359.401 491.535 351.411 490.085 341.941 490.085H324.54V588.097ZM557.89 448.182V630H508.529V448.182H557.89ZM680.999 448.182L718.286 576.378H719.706L756.993 448.182H812.746L752.732 630H685.26L625.246 448.182H680.999ZM1021.24 560.398L889.136 613.31V568.565L973.298 539.446L971.877 541.577V536.605L973.298 538.736L889.136 509.616V464.872L1021.24 517.784V560.398Z" fill="#F0F0F0"/>
<g style="mix-blend-mode:color">
<circle cx="541" cy="540" r="500" fill="#252323"/>
</g>
</svg>
